<svg width="1920" height="382" viewBox="0 0 1920 382" fill="none" xmlns="http://www.w3.org/2000/svg">
<path opacity="0.25" d="M443.773 65.6231C488.089 50.8217 510.066 20.6006 561.616 37.917C605.171 52.5906 637.412 74.4784 685.689 74.3825C719.125 74.3079 754.288 77.0786 787.519 73.3169C820.75 69.5553 853.45 59.9967 886.427 55.18C929.645 48.9355 959.579 15.6242 1000.25 3.57202C1046.35 -10.0786 1067.45 34.198 1101.85 52.1111C1118.21 60.636 1138.39 58.8351 1156.59 62.0213C1176.14 65.442 1195.23 70.8127 1214.78 74.1055C1266.45 82.7796 1322.25 72.0701 1374.33 70.1094M431.831 69.1503C474.988 55.6276 500.563 27.1542 549.154 41.327C595.462 54.8604 630.13 76.4072 680.049 76.9507C713.788 77.3236 748.359 81.064 782.013 77.9097C817.031 74.6383 851.892 63.5132 886.753 58.5048C931.432 52.111 963.938 18.6825 1006.7 7.55744C1049.13 -3.42912 1075.63 40.6876 1107.96 56.2989C1124.87 64.4723 1143.67 63.7583 1162.3 66.5076C1184.03 69.7684 1205.32 74.9473 1227.08 78.0376C1279.01 85.4011 1333.46 75.7252 1385.61 73.8391M419.333 73.0505C462.876 60.8811 491.108 35.1464 538.878 46.751C564.031 52.857 587.481 63.4919 612.114 70.9512C633.85 77.5261 654.124 78.1548 676.765 79.0926C711.312 80.5418 746.355 86.9675 780.999 83.2379C799.341 81.2558 816.729 75.3523 834.262 70.5463C852.303 65.6018 868.882 64.76 887.237 62.1386C930.707 55.926 965.013 26.8878 1006.84 16.466C1050.57 5.57539 1077.23 43.8951 1111.34 61.1475C1130.2 70.7381 1152.12 69.8537 1173.08 72.571C1194.68 75.3736 1216.13 79.1778 1237.79 81.6607C1290.04 87.6602 1344.06 79.3164 1396.39 77.5901M406.195 77.313C452.407 66.4437 484.938 43.309 534.796 54.5407C558.814 59.9434 581.962 67.8822 605.907 73.562C627.51 78.6876 647.881 78.7516 669.906 80.5631C707.074 83.6215 744.024 94.2031 781.638 88.8643C800.102 86.2429 817.514 79.5828 835.096 74.3079C853.208 68.8733 869.51 67.6371 888.227 65.2288C929.753 59.9007 965.508 37.4055 1005.48 27.3141C1052 15.5922 1080.86 51.6955 1118.83 68.7667C1153.22 84.2182 1205.49 81.6714 1243.64 84.8576C1297.98 89.4185 1352.7 82.9821 1407.08 81.4476M392.321 81.9378C438.424 73.2956 475.821 54.1677 524.267 61.8295C547.693 65.5379 570.756 70.898 594.086 75.0432C615.821 78.9008 637.231 78.613 659.014 81.3304C697.365 86.115 734.895 100.927 774.285 96.2491C814.242 91.4964 848.849 72.2406 889.446 68.0101C932.265 63.5452 970.664 44.0763 1012.94 37.7998C1059.01 30.9585 1090.35 65.4526 1130.21 79.2524C1167.29 92.0399 1215.78 87.2552 1255.27 88.843C1309.48 90.9743 1363.5 86.7118 1417.69 85.465M377.685 86.8929C426.952 80.1689 468.684 66.1453 519.364 70.6848C562.497 74.5424 608.467 75.3416 650.9 82.4067C692.354 89.2799 731.49 109.878 774.864 103.133C815.703 96.7393 848.632 74.5743 890.787 71.1644C931.661 67.8822 970.809 56.8211 1011.33 51.5996C1060.52 45.2058 1095.05 75.9597 1138.9 89.6103C1176.67 101.332 1222.7 93.3932 1262.06 92.935C1317.61 92.2743 1373.08 90.5587 1428.62 89.7381M362.446 92.0932C411.182 87.8307 456.899 78.8049 506.214 79.1991C549.745 79.5508 600.027 73.6046 642.35 83.1846C686.437 93.1694 728.302 120.044 775.48 110.091C816.729 101.385 848.753 76.3539 892.32 74.0948C933.98 71.9636 975.458 67.829 1017.11 65.4526C1065.72 62.682 1103.25 89.2053 1148.17 100.362C1189.88 110.72 1234.19 99.691 1276.43 97.0909C1330.42 93.7449 1385.51 94.3842 1439.63 93.8941M349.912 96.2811C400.749 93.5424 451.441 89.2799 502.254 86.3388C547.838 83.7174 598.36 72.6349 642.628 86.1257C683.829 98.6893 724.378 126.353 769.913 117.029C813.698 108.099 847.195 77.8245 893.636 76.6203C934.149 75.5547 975.144 78.2934 1015.68 78.6663C1066.96 79.1352 1107.55 99.4566 1156.26 109.942C1200.94 119.533 1244.59 104.508 1288.77 100.171C1341.07 95.0343 1396.06 97.5811 1448.67 97.3467M336.799 100.607C387.949 99.3394 441.431 99.35 492.135 93.5957C537.743 88.4168 586.684 72.1341 631.869 86.4454C675.823 100.362 719.584 135.219 768.996 123.273C813.082 112.617 847.678 79.9451 895.134 79.4016C937.639 78.9221 980.457 88.6405 1022.88 90.8251C1071.44 93.3293 1113.33 108.685 1160.31 117.828C1207.6 127.024 1247.25 111.434 1293.13 104.518C1346.43 96.4516 1404.78 101.119 1458.77 101.066M322.9 105.019C374.027 104.71 429.005 108.131 479.443 100.874C528.264 93.8514 575.599 72.7521 624.745 88.875C669.81 103.655 711.687 140.174 762.801 129.944C810.486 120.353 846.12 82.9075 896.957 82.6091C939.112 82.3534 980.53 97.4319 1022.32 100.959C1072.89 105.222 1118.76 117.434 1168.43 125.745C1219.27 134.27 1257.79 115.558 1306.33 107.843C1358.71 99.5312 1417.06 105.019 1470.24 105.062M308.18 109.452C361.541 109.452 420.154 115.111 472.705 106.202C521.369 97.9541 567.87 75.0752 617.608 92.0612C665.535 108.418 708.354 147.559 763.345 134.579C811.042 123.326 847.642 86.4347 899.119 86.2109C941.382 86.0191 981.073 103.975 1022.67 108.195C1049.12 110.891 1074.49 111.541 1100.71 116.656C1125.89 121.558 1150.75 127.823 1176.19 131.681C1228.11 139.556 1264.33 121.771 1313.38 112.436C1366.87 102.238 1429.23 109.41 1483.64 109.431M294.173 113.789C350.166 113.789 410.759 119.544 465.943 110.251C514.908 102.014 560.625 83.2165 610.375 98.5295C657.903 113.129 703.85 150.084 757.246 139.343C807.902 129.155 848.064 92.1251 901.787 91.88C945.065 91.6882 986.435 108.685 1029.28 112.297C1081.76 116.72 1130.41 128.399 1182.21 136.295C1236.27 144.532 1275.46 124.786 1326.73 116.155C1380.93 106.969 1442.72 113.789 1497.81 113.789M279.755 118.222C336.448 118.222 395.859 122.73 452.069 115.803C502.688 109.527 552.583 92.4768 603.492 106.436C653.87 120.204 703.137 153.324 758.188 141.815C808.313 131.351 850.588 99.0623 903.61 98.7C948.12 98.391 991.567 112.713 1035.81 115.75C1090.97 119.501 1141.15 134.931 1195.51 142.209C1246.12 149.008 1285.67 129.88 1333.69 121.334C1390.29 111.253 1454.81 118.243 1512.41 118.243M265.627 122.591C325.182 122.591 386.259 125.916 445.548 120.524C496.264 115.91 546.884 103.719 597.527 115.121C650.658 127.109 702.111 155.977 758.623 144.245C808.252 133.94 851.989 106.213 904.19 105.637C948.494 105.158 992.339 116.006 1036.47 118.425C1091.28 121.408 1139.72 136.625 1193.24 145.768C1247.28 154.986 1288.96 136.306 1340.18 126.321C1398.94 114.855 1466.87 122.602 1526.73 122.602M251.523 126.971C311.634 126.971 372.276 128.932 432.29 125.905C485.083 123.252 539.759 113.512 592.105 123.444C644.452 133.375 696.907 156.606 751.644 147.655C803.676 139.13 850.069 113.129 903.949 112.287C948.434 111.605 992.943 119.075 1037.33 120.812C1096.98 123.156 1148.34 142.646 1206.39 151.597C1259.4 159.76 1302.99 138.991 1353.52 130.093C1412.92 119.607 1480.61 126.96 1541 126.96M237.914 131.18C300.706 131.18 363.642 131.915 426.457 130.924C479.492 130.083 534.168 124.925 586.804 132.246C638.474 139.428 691.702 157.64 744.568 150.777C798.568 143.776 847.751 120.439 903.007 119.288C949.967 118.307 997.121 122.485 1044.08 123.113C1101.21 123.881 1149.14 143.733 1204.02 154.357C1262.68 165.706 1310.32 142.561 1366.65 133.716C1426.67 124.339 1494.02 131.18 1554.85 131.18M224.873 135.219C342.655 135.219 464.204 130.019 581.503 141.048C635.202 146.099 690.615 159.025 744.761 152.546C797.892 146.152 847.569 127.898 901.642 126.47C951.151 125.159 1000.97 125 1050.53 125.032C1109.81 125.032 1158.94 149.711 1215.88 159.686C1271.23 169.393 1319.23 147.079 1372.3 138.373C1434.81 128.154 1504.62 135.176 1568.04 135.176M211.313 139.417C333.357 139.417 454.158 144.66 575.985 149.946C631.664 152.354 688.937 160.261 744.58 154.496C797.01 149.051 847.086 135.368 900.133 133.695C950.378 132.118 1000.54 128.463 1050.8 127.163C1109.72 125.639 1157.66 150.372 1213.41 162.605C1271.59 175.393 1322.2 153.089 1378.19 143.2C1442.89 131.777 1516.04 139.417 1581.8 139.428M197.185 143.797C265.035 143.797 334.082 140.472 401.631 146.781C458.191 152.109 513.025 158.236 570.008 158.322C625.433 158.407 681.945 160.815 737.226 157.011C791.419 153.281 844.176 142.625 898.648 140.707C949.617 138.917 1000.08 132.182 1051.03 129.795C1115.35 126.843 1165.02 156.755 1225.79 168.86C1283.34 180.316 1336.18 156.073 1391.66 147.058C1457.07 136.402 1529.77 143.797 1596.09 143.797M182.453 148.358C250.292 148.358 320.219 144.032 387.647 151.555C447.046 158.151 503.34 168.104 563.56 165.866C618.824 163.806 674.121 161.628 729.449 159.334C785.647 156.958 841.218 149.253 897.501 147.282C951.284 145.396 1004.16 135.677 1057.84 132.768C1119.11 129.401 1167.41 158.545 1224.57 172.249C1287.45 187.338 1344.76 160.229 1405.7 151.139C1471.63 141.314 1544.27 148.358 1610.98 148.358M167.069 153.121C234.956 153.121 305.657 148.187 373.073 155.881C435.212 162.978 493.258 176.192 556.484 171.993C669.991 164.459 783.088 156.425 896.909 153.015C953.373 151.32 1008.45 138.512 1064.75 136.327C1128.38 133.855 1178.36 166.559 1238.22 178.952C1300.75 191.942 1359.83 163.554 1420.55 155.38C1486.97 146.429 1559.56 153.079 1626.63 153.079M152.386 157.661C222.832 157.661 296.383 152.61 366.323 160.794C430.889 168.349 490.529 181.691 556.218 175.371C613.358 169.873 668.373 163.586 725.947 162.723C782.701 161.859 839.527 159.121 896.208 157.682C952.89 156.244 1008.29 143.722 1064.85 140.92C1128.38 137.723 1178.64 167.891 1237.93 181.925C1300.72 196.79 1359.21 171.599 1420.07 161.39C1490.83 149.53 1569.68 157.81 1641.42 157.714M137.968 162.126C211.156 162.126 287.266 156.936 359.923 165.6C421.76 172.974 480.458 186.251 543.249 179.4C602.212 173.006 657.517 164.705 717.205 164.918C775.71 165.131 834.552 163.138 893.033 161.849C950.595 160.57 1007.03 148.891 1064.42 145.705C1133.25 141.89 1186.56 174.7 1251.5 187.562C1314.39 200.019 1373.22 173.773 1433.99 164.257C1505.49 153.057 1583.72 162.211 1656.08 162.2M122.958 166.761C196.533 166.761 272.619 161.902 345.771 169.702C412.39 176.799 475.845 191.377 543.237 181.925C599.592 174.018 650.815 166.111 708.185 167.315C767.728 168.562 827.85 166.878 887.393 165.802C948.712 164.737 1009.1 153.153 1070.29 150.34C1136.25 147.303 1188.97 176.416 1251.06 190.056C1319.66 205.124 1381.72 176.416 1448.22 166.665C1520.28 156.094 1598.53 166.474 1671.27 166.825M107.333 171.599C180.654 171.599 256.281 167.209 329.288 173.805C395.364 179.783 461.005 195.842 527.648 186.614C587.312 178.323 639.67 167.869 700.686 169.937C760.181 171.94 820.4 170.256 879.919 169.553C945.029 168.775 1009.39 157.608 1074.33 155.114C1142.12 152.503 1196.89 182.138 1261.3 194.542C1329.88 207.724 1391.08 179.698 1457.3 169.617C1531.56 158.311 1612.11 170.683 1687.03 171.62M92.4319 176.203C171.042 176.203 251.958 171.674 330.181 179.346C395.798 185.783 461.415 200.105 527.418 189.001C555.348 184.28 582.457 176.949 610.738 173.645C640.249 170.182 668.771 171.684 698.319 172.771C756.582 174.903 815.449 172.771 873.7 172.292C942.807 171.727 1011.35 161.454 1080.46 159.611C1147.48 157.821 1204.14 186.326 1268.15 198.122C1336.62 210.75 1398.56 183.428 1464.47 172.324C1541.21 159.408 1624.79 174.53 1702.19 176.128M77.3499 180.923C156.31 180.923 237.166 176.661 315.848 183.534C381.477 189.235 449.255 204.506 515.09 193.54C546.485 188.308 576.613 178.973 608.455 175.648C637.726 172.601 666.416 174.913 695.747 175.979C752.694 178.057 810.015 175.446 866.986 175.148C937.892 174.775 1008.39 166.132 1079.24 164.491C1149.28 162.85 1207.8 190.066 1275.12 201.618C1346.9 213.904 1410.12 184.994 1479.19 173.912C1556.6 161.497 1639.72 178.494 1717.55 180.774M62.594 185.431C141.892 185.431 222.627 181.52 301.684 187.562C371.648 192.954 444.824 209.493 514.631 195.842C541.752 190.514 567.907 182.415 595.535 178.963C628.404 174.839 660.463 178.142 693.344 179.282C748.963 181.222 804.799 178.099 860.429 177.908C932.977 177.673 1005.22 170.534 1077.78 169.074C1150.88 167.592 1211.57 193.583 1281.86 205.092C1356.55 217.304 1421.6 186.326 1493.55 175.435C1571.47 163.628 1654.24 182.319 1732.44 185.196M47.7656 190.024C127.329 190.024 208.137 186.443 287.507 191.771C357.785 196.492 432.99 213.659 503.038 200.531C533.553 194.819 562.497 184.642 593.603 181.35C622.583 178.249 650.876 181.147 679.82 182.586C737.781 185.463 796.117 181.147 854.162 181.019C930.804 180.838 1007.2 174.626 1083.82 173.709C1156.27 172.878 1218.29 197.973 1288.38 208.693C1363.4 220.191 1428.28 190.311 1500.33 178.611C1581.03 165.504 1666.38 186.337 1747.38 189.789M33.1787 194.531C118.116 194.531 204.285 190.876 289.005 196.993C358.582 202.012 433.908 217.836 502.882 202.992C532.816 196.599 561.145 186.571 592.081 183.928C620.989 181.445 649.33 185.101 678.166 186.571C734.666 189.459 791.432 185.122 847.968 184.941C928.872 184.696 1009.5 178.952 1090.34 178.249C1162.2 177.609 1224.94 202.182 1294.74 212.54C1369.86 223.687 1435.02 194.627 1506.84 181.989C1590.32 167.251 1678.43 190.418 1762.18 194.286M18.1329 199.188C103.324 199.188 189.601 195.767 274.599 201.319C344.539 205.88 421.917 222.312 491.325 208.235C521.248 202.172 549.287 191.249 580.03 187.988C612.633 184.557 644.319 189.416 676.753 191.121C732.42 194.03 788.34 189.768 844.019 189.48C925.841 189.065 1007.52 184.088 1089.32 183.087C1163.86 182.17 1228.99 206.413 1301.44 216.696C1379.51 227.789 1446.27 197.259 1521.21 184.855C1605.24 170.928 1693.32 195 1777.48 198.922M3.35286 203.738C88.7369 203.738 174.978 200.648 260.193 205.699C334.528 210.111 416.785 227.203 490.239 211.08C519.968 204.548 548.031 194.606 578.799 192.048C611.522 189.32 643.546 194.18 676.113 195.853C731.913 198.634 787.942 194.851 843.766 194.51C925.406 194.02 1006.9 189.054 1088.52 187.765C1165.47 186.539 1233.25 210.303 1308.12 220.852C1388.46 232.18 1457.98 200.509 1535.34 188.724C1619.87 175.851 1707.77 199.636 1792.28 203.493M-10.3646 208.011C56.9549 208.011 124.311 207.479 191.63 208.011C255.327 208.555 318.758 214.757 382.322 217.89C410.337 219.275 438.339 220.767 466.185 216.92C491.627 213.403 516.08 206.019 541.353 201.788C590.427 193.551 638.692 200.115 688.007 201.692C797.892 205.209 908.598 199.689 1018.34 195.139C1079.6 192.603 1138.88 190.248 1199.25 201.532C1255.24 211.976 1312.85 229.729 1370.72 226.265C1439.32 222.174 1503.34 195.576 1571.85 191.004C1649.58 185.804 1728.66 204.207 1806.22 207.702M-24.5651 212.412C108.697 212.412 241.09 214.906 374.22 219.712C430.176 221.737 479.89 213.691 534.821 207.063C586.925 200.776 638.861 207.063 691.026 208.704C801.382 212.242 911.532 207.862 1021.66 201.863C1081.62 198.602 1139.75 196.183 1199.22 205.379C1257.31 214.352 1317.8 231.146 1377.31 227.757C1445.47 223.847 1510.48 202.236 1578.46 197.11C1658.55 191.079 1740.65 208.832 1820.65 212.135M-39.2486 216.973C94.7302 216.973 228.621 218.206 362.422 220.671C419.526 221.79 474.022 215.652 530.715 212.221C583.846 209.024 637.158 214.906 690.229 216.654C802.347 220.362 913.198 217.165 1024.98 209.397C1087.71 205.038 1147.81 203.184 1210.31 211.016C1268.52 218.316 1328.1 230.89 1387.2 227.981C1457.1 224.539 1524.98 206.669 1594.89 203.227C1674.87 199.22 1755.69 213.883 1835.55 216.707M-54.4392 221.673C81.2623 221.673 216.964 221.246 352.653 221.161C409.733 221.161 466.692 217.964 523.735 217.804C580.779 217.645 637.581 223.889 694.455 225.445C808.62 228.756 922.907 225.802 1036.66 216.6C1095.24 211.816 1152.16 210.377 1210.78 215.396C1271.52 220.586 1333.05 229.963 1394.24 227.907C1463.96 225.552 1532.67 213.148 1602.34 210.42C1685.17 207.17 1768.22 219.147 1850.94 221.481M-70.1612 226.553C67.4965 226.553 204.659 224.422 342.269 221.321C461.814 218.646 579.233 232.553 698.488 234.449C813.577 236.272 926.24 234.268 1040.76 224.124C1161.84 213.414 1280.58 229.025 1401.62 227.448C1473.83 226.511 1545.68 218.7 1617.89 217.645C1701 216.419 1783.87 224.784 1866.91 226.447M-85.7262 231.38C-13.154 231.38 59.4303 231.721 132.015 231.38C198.803 231.008 265.12 224.209 331.799 221.417C454.218 216.089 573.135 243.081 695.264 243.209C814.459 243.337 931.516 241.238 1050.11 230.624C1168.95 219.968 1289.74 226.447 1409.04 227.022C1481.24 227.374 1553.42 224.752 1625.61 224.891C1711.35 225.072 1796.95 230.283 1882.7 231.285M-100.494 235.963C-25.2655 235.963 50.0357 236.794 125.313 235.963C189.058 235.259 252.103 226.372 315.546 222.11C381.308 217.719 444.449 224.614 509.173 234.886C573.498 245.138 633.85 251.286 699.285 251.542C760.797 251.787 822.272 251.947 883.783 251.542C941.14 251.212 996.88 244.338 1053.69 238.211C1113.22 231.817 1172.45 231.444 1232.32 230.166C1293.62 228.855 1355.08 226.127 1416.39 226.969C1576.81 229.1 1737.21 234.918 1897.63 235.973M-115.311 240.598C-39.9489 240.598 35.4489 241.323 110.798 240.598C176.464 239.969 240.873 228.45 306.091 223.186C373.58 217.73 436.504 227.448 502.217 240.236C567.931 253.023 628.742 259.172 696.17 259.417C761.871 259.609 827.561 260.355 893.262 260.131C949.013 259.928 1002.65 252.426 1057.7 245.617C1115.98 238.403 1174.05 238.158 1232.71 235.345C1296.1 232.35 1359.96 226.457 1423.5 227.885C1500.78 229.633 1577.77 236.41 1655.04 238.232C1740.77 240.268 1826.86 240.545 1912.64 240.726M-129.97 245.084C-52.5314 245.084 25.0038 246.15 102.43 245.084C167.166 244.147 230.162 231.466 294.354 225.626C365.139 219.232 429.355 231.412 497.593 246.939C564.344 262.134 625.119 267.335 693.851 267.505C763.972 267.676 834.081 268.997 904.202 268.997C959.821 268.997 1012.6 260.11 1067.22 252.395C1123.81 244.413 1180.34 244.53 1237.35 240.673C1302.46 236.197 1367.83 228.248 1433.24 229.835C1510.43 231.69 1586.98 242.175 1664.16 244.221C1751.76 246.534 1839.82 245.287 1927.47 245.287M-144.81 249.688C-67.2149 249.688 10.4169 250.263 88.0124 249.688C154.982 249.176 219.814 235.462 286.155 229.441C357.592 222.973 421.7 236.059 490.227 252.704C522.395 260.515 554.757 268.24 587.94 271.885C623.525 275.764 659.763 273.59 695.53 273.824C767.414 274.293 839.225 276.307 911.17 276.595C965.895 276.808 1017.11 267.324 1070.67 258.852C1128.48 249.72 1186.18 250.274 1244.48 245.649C1309.59 240.47 1374.7 231.956 1440.23 233.32C1517.71 234.929 1594.3 247.173 1671.74 249.4C1761.88 251.947 1852.46 249.645 1942.65 249.709M-158.021 253.791C-77.9498 253.791 2.36269 255.389 82.4095 253.791C148.497 252.437 213.8 241.919 279.55 236.868C350.709 231.402 414.708 243.092 483.501 258.181C555.493 273.941 623.453 277.533 697.16 280.25C770.082 282.946 842.848 287.709 915.819 289.404C970.375 290.64 1020.68 277.799 1073.29 267.079C1132.56 255.005 1191.16 254.494 1251.56 250.722C1316.62 246.661 1382.18 239.362 1447.48 240.79C1526.85 242.452 1605.74 251.904 1685.11 254.451C1775.27 257.296 1865.78 253.524 1955.98 253.737M-171.581 258.01C-90.9669 258.01 -10.1352 259.534 70.467 258.01C136.41 256.753 202.292 251.19 268.139 247.94C341.327 244.328 408.574 253.812 480.096 266.748C549.854 279.365 617.125 282.36 687.886 286.111C763.755 290.117 839.334 297.833 915.336 299.847C972.971 301.402 1025.53 285.887 1080.77 273.664C1138.99 260.77 1196 260.078 1255.69 258.128C1323.66 255.9 1392.14 250.839 1460.21 252.48C1539.25 254.387 1618.2 258.927 1697.23 261.122C1788.05 263.647 1878.96 258.021 1969.79 257.925M-185.516 262.337C-36.9905 262.337 111.535 262.699 260.06 261.442C332.138 260.824 400.665 266.695 471.921 276.36C543.515 286.089 614.179 287.656 686.196 292.409C761.171 297.353 835.796 306.635 911.013 308.681C970.181 310.29 1024.18 294.337 1080.77 281.497C1142.27 267.537 1201.64 266.876 1264.82 267.111C1333.18 267.377 1401.69 266.205 1470.02 267.324C1550.4 268.635 1630.79 267.739 1711.18 269.114C1802.14 270.67 1892.87 263.051 1983.8 262.283M-199.801 266.78C-117.001 266.78 -34.2011 266.951 48.5988 266.727C115.749 266.546 182.127 274.016 249.048 276.765C321.765 279.749 393.637 281.465 466.221 287.624C536.728 293.613 607.344 293.378 677.828 298.429C753.358 303.843 828.358 314.723 904.202 316.545C967.078 318.058 1024.53 301.509 1084.81 288.317C1212.24 260.44 1347.24 284.139 1477.02 284.374C1650.98 284.693 1824.55 269.956 1998.32 266.834M-214.485 271.341C-131.576 271.341 -48.6431 270.84 34.2655 271.341C104.024 271.768 171.163 286.921 240.197 293.208C383.989 306.315 530.546 293.464 674.507 304.93C748.323 310.823 821.571 322.8 895.822 324.111C961.101 325.251 1020.92 309.586 1083.77 296.309C1221.43 267.239 1356.48 305.249 1495.24 302.596C1572.82 301.104 1649.5 288.892 1727.08 287.368C1822.84 285.493 1917.63 274.25 2013.26 271.522M-229.567 276.019C-144.038 276.019 -58.255 274.261 27.2498 276.019C97.2258 277.49 162.613 300.252 231.104 309.853C302.058 319.806 376.695 312.538 448.265 311.185C522.311 309.778 597.032 305.079 670.872 311.686C742.961 318.133 814.447 331.165 887.104 332.007C954.882 332.817 1016.95 317.909 1082.43 304.535C1154.17 289.883 1220.45 290.139 1293.07 299.644C1363.57 308.872 1435.15 323.408 1506.81 320.957C1585.87 318.218 1662.9 299.644 1741.97 296.863C1837.94 293.538 1932.76 280.079 2028.56 276.382M-245.035 280.825C-159.301 280.825 -73.3249 278.833 12.3248 280.825C85.6939 282.541 151.19 313.092 221.842 326.04C294.511 339.349 372.916 327.18 446.2 322.342C517.577 317.642 589.22 311.302 660.645 318.133C733.579 325.123 805.692 340.308 879.315 340.969C949.352 341.598 1013.5 326.977 1081.24 313.103C1154.9 298.003 1222.32 297.278 1296.61 309.544C1369.24 321.543 1443.76 341.598 1518.25 338.454C1599.06 335.044 1676.22 309.469 1757.05 305.921C1853.38 301.658 1948.06 285.812 2044.25 281.273M-260.926 285.759C-175.023 285.759 -88.8899 284.107 -3.01078 285.759C72.0369 287.198 135.444 322.896 206.326 339.253C279.055 356.037 357.049 341.235 430.321 333.478C506.226 325.453 581.636 316.683 657.94 325.528C729.824 333.872 800.85 350.687 873.676 351.582C947.854 352.499 1015.79 335.598 1087.41 320.679C1162.76 305.015 1231.03 304.695 1306.55 319.486C1379 333.659 1454.28 357.955 1529.31 353.927C1609.78 349.6 1685.08 319.635 1765.4 314.691C1864.24 308.617 1961.63 291.46 2060.42 286.207M-277.252 290.831C-189.247 290.831 -100.567 288.04 -12.6227 290.959C65.2988 293.549 127.945 334.724 201.109 352.392C273.15 369.783 352.545 352.051 424.682 342.258C500.479 331.975 574.669 322.353 651.141 332.764C724.668 342.78 796.793 362.601 871.551 364.647C946.091 366.714 1015.31 346.968 1086.59 330.547C1165.08 312.517 1234.46 310.535 1313.3 327.627C1387.71 343.75 1464.71 371.094 1542.5 366.437C1622.39 361.674 1695.67 327.958 1775.44 322.331C1824.57 318.868 1872.61 316.747 1921.43 309.704C1973.14 302.244 2024.52 294.178 2076.89 291.279M-294 296.01C-203.134 296.01 -111.736 293.41 -20.9304 296.01C55.1436 298.216 115.411 341.182 186.148 359.724C262.826 379.821 347.063 359.798 423.692 348.109C497.882 336.856 569.682 327.766 644.548 340.074C721.033 352.659 795.754 377.125 873.978 380.685C950.559 384.169 1023.14 358.03 1095.29 339.253C1173.89 318.793 1242.41 316.087 1321.97 334.405C1396.84 351.646 1473.09 379.48 1551.82 375.101C1634.33 370.508 1708.8 332.7 1791.37 328.213C1838.23 325.688 1883.7 323.482 1930.15 316.588C1984.67 308.499 2038.71 299.314 2094 296.394" stroke="#F3AA00" stroke-miterlimit="10" stroke-linecap="round"/>
</svg>
