<svg width="20" height="16" viewBox="0 0 20 16" fill="none" xmlns="http://www.w3.org/2000/svg">
<path d="M16.4072 0H3.56886C1.60479 0 0 1.6072 0 3.57421V7.46027H1.86826V3.57421C1.86826 2.63868 2.63473 1.87106 3.56886 1.87106H16.4311C17.3653 1.87106 18.1317 2.63868 18.1317 3.57421V12.4258C18.1317 13.3613 17.3653 14.1289 16.4311 14.1289H9.55689V16H16.4311C18.3952 16 20 14.3928 20 12.4258V3.57421C19.976 1.6072 18.3713 0 16.4072 0Z" fill="white"/>
<path d="M10.491 11.8501L14.4671 7.41229L10.4671 3.28636L9.12575 4.58171L10.9461 6.45277H6.58683C4.83832 6.45277 3.42515 7.86806 3.42515 9.61919V14.7046H5.29341V9.61919C5.29341 8.89955 5.86826 8.32384 6.58683 8.32384H11.1856L9.12575 10.6267L10.491 11.8501Z" fill="white"/>
</svg>
