<svg width="24" height="24" viewBox="0 0 24 24" fill="none" xmlns="http://www.w3.org/2000/svg">
<g clip-path="url(#clip0_25_2441)">
<path fill-rule="evenodd" clip-rule="evenodd" d="M11.7608 24C8.2474 23.9973 5.41718 23.1508 3.43974 21.6304C1.43847 20.0917 0.376953 17.9081 0.376953 15.4373C0.376953 13.0566 1.4362 11.3399 2.63484 10.1795C3.57412 9.27013 4.61062 8.68779 5.33247 8.3527C5.16925 7.84975 4.96553 7.19141 4.78337 6.51131C4.53961 5.60137 4.3005 4.53362 4.3005 3.75129C4.3005 2.82516 4.50149 1.89516 5.04368 1.17253C5.61661 0.409049 6.47893 0 7.51638 0C8.32722 0 9.0156 0.301983 9.55458 0.822932C10.0697 1.3208 10.4126 1.98217 10.6493 2.67157C11.0652 3.88288 11.2271 5.40476 11.2727 6.9235H12.2664C12.3119 5.40476 12.4738 3.88288 12.8898 2.67157C13.1266 1.98217 13.4694 1.32092 13.9846 0.822932C14.5234 0.302104 15.2118 0 16.0227 0C17.0601 0 17.9225 0.409049 18.4954 1.17253C19.0375 1.89516 19.2387 2.82516 19.2387 3.75129C19.2387 4.53362 18.9995 5.60137 18.7557 6.51131C18.5735 7.19141 18.3699 7.84975 18.2067 8.3527C18.9284 8.68779 19.965 9.27013 20.9043 10.1795C22.1028 11.3399 23.1622 13.0566 23.1622 15.4373C23.1622 17.9081 22.1006 20.0917 20.0994 21.6304C18.1219 23.1508 15.2918 23.9973 11.7784 24H11.7608Z" fill="#111111"/>
<path d="M7.51565 0.880737C5.99617 0.880737 5.2966 2.03067 5.2966 3.62082C5.2966 4.88483 6.10935 7.41634 6.44282 8.40168C6.51787 8.6233 6.39993 8.8662 6.185 8.95212C4.96718 9.43923 1.37305 11.2226 1.37305 15.3069C1.37305 19.6093 5.02556 22.8533 11.7607 22.8585L11.7688 22.8583L11.7768 22.8585C18.5121 22.8533 22.1644 19.6093 22.1644 15.3069C22.1644 11.2226 18.5704 9.43923 17.3526 8.95212C17.1377 8.86632 17.0197 8.62343 17.0948 8.40168C17.4282 7.41622 18.241 4.88483 18.241 3.62082C18.241 2.03055 17.5415 0.880737 16.0219 0.880737C13.8346 0.880737 13.2894 4.02347 13.2504 7.39652C13.2478 7.62165 13.0684 7.80436 12.8463 7.80436H10.6911C10.4692 7.80436 10.2896 7.62165 10.2871 7.3964C10.2483 4.02347 9.70301 0.880737 7.51565 0.880737Z" fill="white"/>
<path d="M11.7767 21.4802C6.82799 21.4802 1.38162 18.7932 1.37305 15.3151V15.3313C1.37305 19.6371 5.03116 22.8828 11.7767 22.8828C18.5223 22.8828 22.1804 19.6371 22.1804 15.3313V15.3151C22.1718 18.7932 16.7254 21.4802 11.7767 21.4802Z" fill="#A1A1A1"/>
<path d="M9.02821 14.2467C9.02821 15.4211 8.48101 16.0327 7.8061 16.0327C7.13118 16.0327 6.58398 15.4211 6.58398 14.2467C6.58398 13.0724 7.13118 12.4608 7.8061 12.4608C8.48101 12.4608 9.02821 13.0724 9.02821 14.2467ZM16.9716 14.2467C16.9716 15.4211 16.4245 16.0327 15.7496 16.0327C15.0745 16.0327 14.5275 15.4211 14.5275 14.2467C14.5275 13.0724 15.0745 12.4608 15.7496 12.4608C16.4245 12.4608 16.9716 13.0724 16.9716 14.2467Z" fill="#111111"/>
</g>
<defs>
<clipPath id="clip0_25_2441">
<rect width="23.5385" height="24" fill="white"/>
</clipPath>
</defs>
</svg>
