<svg width="18" height="18" viewBox="0 0 18 18" fill="none" xmlns="http://www.w3.org/2000/svg">
<path opacity="0.2" d="M9 18C13.9706 18 18 13.9706 18 9C18 4.02944 13.9706 0 9 0C4.02944 0 0 4.02944 0 9C0 13.9706 4.02944 18 9 18Z" fill="#F3BA2F"/>
<path fill-rule="evenodd" clip-rule="evenodd" d="M7.11889 8.2264L9.00137 6.34474L10.8846 8.22793L11.9794 7.13246L9.00137 4.15381L6.02339 7.1317L7.11889 8.2264ZM4.1543 9.00013L5.2494 7.90507L6.3445 9.00013L5.2494 10.0952L4.1543 9.00013ZM9.00138 11.656L7.1189 9.77353L6.02187 10.8675L6.0234 10.869L9.00138 13.8461L11.9794 10.8675L11.9801 10.8667L10.8846 9.77277L9.00138 11.656ZM11.6564 9.00038L12.7515 7.90532L13.8466 9.00038L12.7515 10.0955L11.6564 9.00038ZM9.00138 7.88802L10.1122 8.99956H10.113L10.1122 9.00033L9.00138 10.1119L7.89057 9.00186L7.88904 8.99956L7.89057 8.99803L8.08502 8.80359L8.17994 8.70943L9.00138 7.88802Z" fill="#F3BA2F"/>
</svg>
