<svg width="24" height="22" viewBox="0 0 24 22" fill="none" xmlns="http://www.w3.org/2000/svg">
<path d="M1.71846 12.7913L1.80022 12.663L6.72318 4.96101C6.73955 4.9355 6.7625 4.91488 6.78961 4.90133C6.81672 4.88777 6.84699 4.88178 6.87722 4.88399C6.90745 4.8862 6.93652 4.89653 6.96137 4.91388C6.98622 4.93123 7.00593 4.95497 7.01842 4.98259C7.84093 6.82595 8.55065 9.11824 8.21831 10.5456C8.07637 11.1327 7.68764 11.928 7.25007 12.663C7.1933 12.7701 7.13122 12.875 7.06536 12.9761C7.04992 12.999 7.02905 13.0177 7.00462 13.0306C6.98018 13.0435 6.95293 13.0501 6.92531 13.0499H1.8623C1.72603 13.0499 1.64654 12.9022 1.71846 12.7913Z" fill="#111111"/>
<path d="M23.6632 14.2226V15.4414C23.6632 15.5118 23.6205 15.5739 23.5584 15.6011C23.1772 15.7646 21.8725 16.3634 21.3301 17.1178C19.9455 19.0445 18.8879 21.8 16.5233 21.8H6.65922C3.16326 21.8 0.330078 18.9574 0.330078 15.4493V15.3369C0.330078 15.2434 0.405781 15.1677 0.499274 15.1677H5.99834C6.10697 15.1677 6.18684 15.2688 6.17699 15.3759C6.13828 15.7394 6.20656 16.1063 6.37344 16.4316C6.53333 16.755 6.78047 17.0273 7.08694 17.2176C7.39342 17.408 7.74702 17.5088 8.1078 17.5088H10.8301V15.3835H8.13884C8.10733 15.3831 8.07653 15.3741 8.04974 15.3575C8.02295 15.3409 8.00118 15.3174 7.98678 15.2894C7.97238 15.2613 7.96589 15.2299 7.968 15.1985C7.97012 15.167 7.98076 15.1368 7.99879 15.1109C8.02831 15.0663 8.06124 15.0201 8.09606 14.9671C8.4472 14.4617 8.77434 13.94 9.07642 13.4038C9.32321 12.9723 9.56243 12.5113 9.75471 12.0487C9.7937 11.9651 9.82474 11.8796 9.85578 11.7959C9.90839 11.6483 9.9629 11.5101 10.0019 11.372C10.0405 11.2554 10.0719 11.1327 10.1029 11.0181C10.1942 10.6252 10.2332 10.2092 10.2332 9.77766C10.2332 9.60847 10.2256 9.43132 10.2097 9.26213C10.2021 9.07741 10.1787 8.89269 10.1552 8.70798C10.1371 8.5423 10.1119 8.3775 10.0795 8.21402C10.039 7.96551 9.98717 7.71897 9.92429 7.47516L9.90272 7.38204C9.85578 7.21285 9.81717 7.0516 9.76266 6.8824C9.61218 6.36449 9.43955 5.85328 9.24524 5.35017C9.1771 5.15751 9.09951 4.9728 9.02191 4.78808C8.90722 4.50987 8.79026 4.2574 8.68352 4.01818C8.62901 3.90917 8.58246 3.81 8.5359 3.70893C8.48397 3.59522 8.43009 3.4824 8.37427 3.37054C8.33529 3.28727 8.29062 3.2093 8.25958 3.13132L7.92687 2.51699C7.91644 2.4984 7.91174 2.47715 7.91334 2.4559C7.91495 2.43464 7.92279 2.41434 7.93588 2.39752C7.94898 2.38071 7.96675 2.36813 7.98696 2.36138C8.00717 2.35462 8.02893 2.35397 8.04951 2.35953L10.1302 2.92352H10.1359C10.1397 2.92352 10.1419 2.92541 10.1434 2.92541L10.4179 3.00111L10.7192 3.08666L10.8301 3.11769V1.88109C10.8301 1.28417 11.3085 0.800049 11.8994 0.800049C12.195 0.800049 12.4634 0.920416 12.656 1.11687C12.8483 1.31369 12.9691 1.58168 12.9691 1.88147V3.71688L13.1905 3.77896C13.2087 3.78464 13.2258 3.7932 13.2412 3.80432C13.2957 3.8452 13.3737 3.90538 13.4725 3.97919C13.5505 4.04127 13.6341 4.11735 13.7352 4.19495C13.9354 4.35657 14.1743 4.56438 14.4369 4.8036C14.507 4.86416 14.5751 4.92624 14.6376 4.98832C15.0144 5.33513 15.3744 5.69981 15.7163 6.08109C15.8178 6.19578 15.9169 6.31236 16.018 6.435C16.1191 6.55953 16.2262 6.68179 16.3193 6.80443C16.4419 6.96795 16.574 7.13714 16.6887 7.31391C16.7432 7.39756 16.8053 7.48311 16.8579 7.56676C17.0055 7.79008 17.1358 8.02173 17.2603 8.253C17.3129 8.36012 17.3674 8.47671 17.414 8.5914C17.5521 8.90064 17.6608 9.21595 17.7308 9.53049C17.7524 9.59862 17.7679 9.67244 17.7754 9.73868V9.75419C17.7989 9.84769 17.8069 9.94686 17.8144 10.0479C17.8467 10.3722 17.8283 10.6995 17.7599 11.0181C17.7298 11.1557 17.6915 11.2915 17.6452 11.4246C17.5987 11.5571 17.5521 11.6948 17.4916 11.825C17.3744 12.1006 17.2346 12.3659 17.0737 12.6184C17.0211 12.7115 16.959 12.8107 16.8965 12.9042C16.8284 13.0034 16.7588 13.0969 16.6963 13.1881C16.6108 13.3047 16.5195 13.4273 16.426 13.5363C16.3428 13.651 16.2568 13.7657 16.1637 13.8668C16.0388 14.016 15.9104 14.1624 15.7788 14.3058C15.7008 14.3974 15.6172 14.4909 15.5316 14.5746C15.4483 14.6677 15.3624 14.7513 15.2848 14.8293C15.1546 14.9595 15.0456 15.0606 14.9544 15.1442L14.7405 15.3407C14.7087 15.3683 14.668 15.3835 14.6258 15.3835H12.9687V17.5088H15.0532C15.5181 17.5086 15.9677 17.3423 16.3208 17.0398C16.4434 16.9331 16.9779 16.4702 17.61 15.7722C17.6312 15.7486 17.6588 15.7318 17.6895 15.7238L23.4471 14.059C23.4724 14.052 23.4989 14.0508 23.5246 14.0557C23.5504 14.0606 23.5747 14.0714 23.5956 14.0873C23.6165 14.1031 23.6334 14.1235 23.6451 14.147C23.6568 14.1705 23.6628 14.1963 23.6629 14.2226H23.6632Z" fill="#111111"/>
</svg>
