<svg width="22" height="22" viewBox="0 0 22 22" fill="none" xmlns="http://www.w3.org/2000/svg">
<g clip-path="url(#clip0_25_2449)">
<path d="M21.0187 6.67406C20.9695 5.55825 20.7891 4.79114 20.5306 4.12643C20.2639 3.42085 19.8537 2.78915 19.3162 2.26402C18.7911 1.73071 18.1552 1.31631 17.4578 1.05382C16.7893 0.795338 16.0262 0.614898 14.9104 0.565702C13.7862 0.512339 13.4293 0.5 10.5782 0.5C7.72707 0.5 7.3702 0.512339 6.25022 0.561535C5.13441 0.610732 4.3673 0.791332 3.70275 1.04965C2.99702 1.31631 2.36532 1.72654 1.84019 2.26402C1.30688 2.78915 0.892637 3.42502 0.62999 4.12242C0.37151 4.79114 0.19107 5.55408 0.141874 6.66989C0.088511 7.79403 0.0761719 8.15091 0.0761719 11.0021C0.0761719 13.8532 0.088511 14.2101 0.137707 15.33C0.186904 16.4459 0.367503 17.213 0.625984 17.8777C0.892637 18.5833 1.30688 19.215 1.84019 19.7401C2.36532 20.2734 3.00119 20.6878 3.69859 20.9503C4.3673 21.2088 5.13025 21.3892 6.24621 21.4384C7.36603 21.4878 7.72306 21.4999 10.5742 21.4999C13.4253 21.4999 13.7822 21.4878 14.9022 21.4384C16.018 21.3892 16.7851 21.2088 17.4497 20.9503C18.861 20.4046 19.9768 19.2888 20.5224 17.8777C20.7807 17.209 20.9613 16.4459 21.0105 15.33C21.0597 14.2101 21.0721 13.8532 21.0721 11.0021C21.0721 8.15091 21.0679 7.79403 21.0187 6.67406ZM19.1276 15.248C19.0824 16.2736 18.9102 16.8274 18.7666 17.1966C18.4137 18.1115 17.6876 18.8376 16.7728 19.1904C16.4036 19.334 15.8457 19.5063 14.8242 19.5513C13.7165 19.6007 13.3843 19.6128 10.5824 19.6128C7.78043 19.6128 7.44407 19.6007 6.34044 19.5513C5.31485 19.5063 4.76103 19.334 4.39182 19.1904C3.93655 19.0222 3.52215 18.7555 3.18579 18.4068C2.83709 18.0663 2.57044 17.6561 2.40218 17.2008C2.25859 16.8316 2.08633 16.2736 2.0413 15.2522C1.99194 14.1445 1.97976 13.8122 1.97976 11.0102C1.97976 8.20828 1.99194 7.87191 2.0413 6.76844C2.08633 5.74285 2.25859 5.18903 2.40218 4.81982C2.57044 4.36439 2.83709 3.95015 3.18996 3.61363C3.53033 3.26493 3.94056 2.99828 4.39599 2.83017C4.7652 2.68659 5.32318 2.51432 6.34461 2.46913C7.45224 2.41994 7.7846 2.4076 10.5864 2.4076C13.3925 2.4076 13.7247 2.41994 14.8283 2.46913C15.8539 2.51432 16.4077 2.68659 16.7769 2.83017C17.2322 2.99828 17.6466 3.26493 17.983 3.61363C18.3317 3.95416 18.5983 4.36439 18.7666 4.81982C18.9102 5.18903 19.0824 5.74686 19.1276 6.76844C19.1768 7.87608 19.1892 8.20828 19.1892 11.0102C19.1892 13.8122 19.1768 14.1404 19.1276 15.248Z" fill="#111111"/>
<path d="M10.5782 5.6073C7.59998 5.6073 5.18359 8.02353 5.18359 11.0019C5.18359 13.9803 7.59998 16.3965 10.5782 16.3965C13.5566 16.3965 15.9728 13.9803 15.9728 11.0019C15.9728 8.02353 13.5566 5.6073 10.5782 5.6073ZM10.5782 14.5013C8.64608 14.5013 7.07885 12.9342 7.07885 11.0019C7.07885 9.06963 8.64608 7.50256 10.5782 7.50256C12.5105 7.50256 14.0775 9.06963 14.0775 11.0019C14.0775 12.9342 12.5105 14.5013 10.5782 14.5013Z" fill="#111111"/>
<path d="M17.4447 5.39392C17.4447 6.0894 16.8808 6.65332 16.1852 6.65332C15.4897 6.65332 14.9258 6.0894 14.9258 5.39392C14.9258 4.69828 15.4897 4.13452 16.1852 4.13452C16.8808 4.13452 17.4447 4.69828 17.4447 5.39392Z" fill="#111111"/>
</g>
<defs>
<clipPath id="clip0_25_2449">
<rect width="21" height="21" fill="white" transform="translate(0.0390625 0.5)"/>
</clipPath>
</defs>
</svg>
