<svg width="22" height="22" viewBox="0 0 22 22" fill="none" xmlns="http://www.w3.org/2000/svg">
<g clip-path="url(#clip0_25_2455)">
<path d="M21.0391 4.48869C20.2581 4.83125 19.426 5.05831 18.5584 5.16856C19.4509 4.63569 20.1321 3.79831 20.4524 2.789C19.6203 3.28512 18.7015 3.63556 17.7224 3.83113C16.9322 2.98981 15.8061 2.46875 14.5776 2.46875C12.1941 2.46875 10.2752 4.40338 10.2752 6.77506C10.2752 7.11631 10.3041 7.44444 10.375 7.75681C6.79581 7.58225 3.62875 5.86681 1.50119 3.25363C1.12975 3.89806 0.911875 4.63569 0.911875 5.42975C0.911875 6.92075 1.67969 8.24244 2.82419 9.00762C2.1325 8.9945 1.45394 8.79369 0.879062 8.47738C0.879062 8.4905 0.879062 8.50756 0.879062 8.52462C0.879062 10.6167 2.37137 12.3545 4.32831 12.7548C3.97787 12.8506 3.59594 12.8966 3.19956 12.8966C2.92394 12.8966 2.64569 12.8808 2.3845 12.8231C2.94231 14.528 4.52519 15.7814 6.40731 15.8221C4.94256 16.9679 3.08275 17.6583 1.06938 17.6583C0.716313 17.6583 0.377687 17.6426 0.0390625 17.5992C1.94612 18.8291 4.20625 19.5312 6.64356 19.5312C14.5658 19.5312 18.8971 12.9688 18.8971 7.28038C18.8971 7.09006 18.8905 6.90631 18.8813 6.72388C19.7358 6.1175 20.4537 5.36019 21.0391 4.48869Z" fill="#111111"/>
</g>
<defs>
<clipPath id="clip0_25_2455">
<rect width="21" height="21" fill="white" transform="translate(0.0390625 0.5)"/>
</clipPath>
</defs>
</svg>
