<svg width="1920" height="528" viewBox="0 0 1920 528" fill="none" xmlns="http://www.w3.org/2000/svg">
<path d="M1958.34 517C1958.34 517 2153.4 480.776 2174.21 443.228C2187.28 419.583 2127.15 401.234 2048.25 389.885C1887.11 366.703 1634 388.381 1432.65 428.379C1171.64 480.284 851.484 509.85 697.062 468.651C616.409 447.115 664.406 409.765 769.817 381.959C848.522 361.199 961.911 343.683 982.775 324.606C1009.45 300.233 932.75 290.226 852.631 292.345C768.27 294.577 644.69 310.788 461.907 329.694C235.504 353.103 -36.4686 373.125 -104.422 338.131C-172.375 303.136 -47.7034 273.693 23.6914 261.918C95.0862 250.143 195.215 237.242 204.606 218.506C212.397 202.948 145.911 191.239 29.2139 191.078C-227.951 190.681 -328 191.929 -328 191.929" stroke="#191919" stroke-width="20" stroke-miterlimit="10" stroke-linecap="round" stroke-linejoin="round"/>
<mask id="mask0_116_1518" style="mask-type:alpha" maskUnits="userSpaceOnUse" x="-8" y="170" width="249" height="212">
<path d="M241 170.5H-7.5V381.5H241V170.5Z" fill="#C4C4C4"/>
</mask>
<g mask="url(#mask0_116_1518)">
<path fill-rule="evenodd" clip-rule="evenodd" d="M-245.876 181.355C-188.695 181.092 -99.3712 180.879 29.2277 181.078C87.7982 181.159 134.197 184.131 165.19 189.146C180.518 191.626 192.889 194.726 201.169 198.637C205.192 200.538 209.436 203.166 212.214 207.032C213.703 209.104 214.878 211.688 215.159 214.71C215.443 217.758 214.753 220.578 213.548 222.984L213.546 222.987C211.029 228.008 206.325 231.481 202.045 233.939C197.484 236.559 191.852 238.888 185.641 241.003C173.189 245.246 157.051 249.084 139.365 252.628C114.193 257.672 84.9786 262.288 57.4699 266.634C46.3474 268.392 35.5038 270.105 25.3187 271.785C-10.3056 277.661 -58.3239 287.821 -88.7643 300.544C-96.3171 303.701 -102.424 306.869 -106.868 309.956C-111.499 313.173 -113.325 315.615 -113.869 316.932C-113.878 316.955 -113.888 316.978 -113.898 317.001C-114.087 317.447 -114.3 317.95 -113.191 319.517C-111.598 321.768 -107.776 325.155 -99.8433 329.24C-84.865 336.954 -57.0008 342.213 -18.4107 344.892C19.6921 347.536 66.7505 347.593 118.985 345.819C223.423 342.274 347.746 331.444 460.879 319.747C511.75 314.485 558.11 309.422 600.361 304.808C709.481 292.89 791.184 283.967 852.367 282.348C892.714 281.281 932.8 283.235 959.754 288.743C966.54 290.13 972.723 291.786 977.982 293.775C983.107 295.712 988.041 298.216 991.747 301.638C995.647 305.241 998.835 310.572 998.063 317.278C997.363 323.361 993.618 328.244 989.523 331.986C985.731 335.452 980.522 338.333 974.94 340.827C969.206 343.388 962.359 345.849 954.764 348.236C939.575 353.009 920.667 357.707 900.223 362.398C886.287 365.595 871.645 368.789 856.854 372.015C827.865 378.339 798.305 384.787 772.368 391.628C746.327 398.497 724.059 405.899 706.579 413.397C688.838 421.008 676.966 428.33 670.831 434.632C667.804 437.742 666.877 439.891 666.66 441.003C666.527 441.688 666.509 442.492 667.597 443.951C668.914 445.717 671.747 448.19 677.223 450.96C682.607 453.684 689.973 456.408 699.642 458.989C775.177 479.141 892.433 482.169 1024.22 473.451C1155.7 464.753 1300.56 444.45 1430.7 418.571L1430.7 418.57C1632.53 378.478 1886.91 356.572 2049.68 379.987C2089.31 385.689 2124.97 393.237 2149.31 402.614C2161.29 407.229 2171.74 412.73 2178.34 419.575C2181.74 423.109 2184.57 427.467 2185.6 432.685C2186.66 438.085 2185.57 443.338 2182.96 448.066L2182.96 448.075C2179.1 455.033 2172 460.811 2164.26 465.655C2156.27 470.658 2146.37 475.4 2135.49 479.851C2113.7 488.762 2086.9 496.938 2061.06 503.854C2035.16 510.787 2009.95 516.528 1991.24 520.532C1981.88 522.535 1974.12 524.107 1968.71 525.18C1966 525.716 1963.87 526.128 1962.42 526.406C1961.69 526.545 1961.13 526.651 1960.76 526.722L1960.32 526.803L1960.18 526.83L1960.17 526.831C1960.17 526.832 1960.17 526.832 1958.34 517C1956.52 507.168 1956.52 507.168 1956.52 507.168L1956.52 507.167L1956.65 507.144L1957.05 507.068C1957.41 507 1957.95 506.898 1958.66 506.762C1960.07 506.492 1962.16 506.088 1964.82 505.561C1970.15 504.505 1977.8 502.954 1987.05 500.975C2005.56 497.014 2030.42 491.351 2055.89 484.535C2081.41 477.702 2107.28 469.781 2127.91 461.34C2138.25 457.114 2147 452.866 2153.65 448.701C2160.56 444.377 2164.12 440.81 2165.46 438.38C2166.11 437.203 2166.01 436.713 2165.97 436.54C2165.9 436.184 2165.56 435.141 2163.94 433.452C2160.47 429.852 2153.4 425.623 2142.12 421.277C2119.94 412.731 2086.09 405.43 2046.83 399.783C1887.3 376.834 1635.47 398.284 1434.6 438.187C1303.72 464.213 1158 484.645 1025.55 493.407C893.403 502.148 773.371 499.36 694.484 478.313L694.482 478.312C683.988 475.51 675.211 472.356 668.195 468.806C661.269 465.303 655.443 461.108 651.566 455.909C647.459 450.403 645.709 443.947 647.03 437.175C648.268 430.829 651.981 425.324 656.5 420.681C665.459 411.478 680.311 402.903 698.695 395.017C717.341 387.018 740.602 379.324 767.267 372.29C793.6 365.344 823.96 358.719 853.221 352.335C867.889 349.135 882.281 345.994 895.75 342.904C916.099 338.236 934.369 333.681 948.768 329.156C955.967 326.893 962.017 324.694 966.784 322.565C971.704 320.368 974.602 318.529 976.026 317.226L976.03 317.223C976.675 316.634 977.139 316.144 977.47 315.756C976.276 314.879 974.203 313.728 970.909 312.482C966.969 310.993 961.893 309.594 955.75 308.338C930.993 303.279 892.667 301.289 852.896 302.341C792.594 303.937 712.147 312.722 603.536 324.584C561.123 329.215 514.416 334.316 462.936 339.641C349.666 351.352 224.8 362.239 119.663 365.808C67.1097 367.592 19.2835 367.556 -19.7954 364.844C-58.3871 362.165 -90.0018 356.805 -109 347.021C-118.056 342.358 -125.202 337.169 -129.519 331.067C-134.262 324.361 -135.41 316.698 -132.355 309.299C-129.651 302.75 -124.131 297.595 -118.278 293.53C-112.238 289.335 -104.723 285.537 -96.477 282.091C-63.7212 268.4 -13.7064 257.951 22.0641 252.052C32.5516 250.322 43.5834 248.579 54.8153 246.804C82.1596 242.484 110.689 237.976 135.435 233.018C152.88 229.522 167.997 225.886 179.191 222.072C184.804 220.16 189.093 218.315 192.084 216.596C192.125 216.573 192.166 216.549 192.206 216.526C186.49 213.922 176.539 211.243 161.996 208.89C132.52 204.12 87.3265 201.158 29.2002 201.078L29.1985 201.078C-99.3662 200.879 -188.649 201.092 -245.784 201.355C-274.352 201.486 -294.882 201.629 -308.266 201.74C-314.959 201.795 -319.865 201.843 -323.096 201.876C-324.711 201.892 -325.908 201.906 -326.7 201.915L-327.874 201.928C-327.875 201.928 -327.875 201.928 -328 191.929C-328.125 181.93 -328.124 181.93 -328.123 181.93L-326.927 181.916C-326.128 181.907 -324.924 181.894 -323.302 181.877C-320.057 181.843 -315.137 181.796 -308.432 181.741C-295.021 181.63 -274.466 181.486 -245.876 181.355ZM-328 191.929L-328.125 181.93C-333.647 181.999 -338.068 186.532 -337.999 192.054C-337.93 197.576 -333.397 201.997 -327.874 201.928L-328 191.929ZM1958.34 517L1956.52 507.168C1951.09 508.176 1947.5 513.396 1948.51 518.826C1949.52 524.256 1954.74 527.84 1960.17 526.832L1958.34 517Z" fill="#F3AA00"/>
<mask id="mask1_116_1518" style="mask-type:alpha" maskUnits="userSpaceOnUse" x="-338" y="181" width="2525" height="347">
<path fill-rule="evenodd" clip-rule="evenodd" d="M-245.876 181.355C-188.695 181.092 -99.3712 180.879 29.2277 181.078C87.7982 181.159 134.197 184.131 165.19 189.146C180.518 191.626 192.889 194.726 201.169 198.637C205.192 200.538 209.436 203.166 212.214 207.032C213.703 209.104 214.878 211.688 215.159 214.71C215.443 217.758 214.753 220.578 213.548 222.984L213.546 222.987C211.029 228.008 206.325 231.481 202.045 233.939C197.484 236.559 191.852 238.888 185.641 241.003C173.189 245.246 157.051 249.084 139.365 252.628C114.193 257.672 84.9786 262.288 57.4699 266.634C46.3474 268.392 35.5038 270.105 25.3187 271.785C-10.3056 277.661 -58.3239 287.821 -88.7643 300.544C-96.3171 303.701 -102.424 306.869 -106.868 309.956C-111.499 313.173 -113.325 315.615 -113.869 316.932C-113.878 316.955 -113.888 316.978 -113.898 317.001C-114.087 317.447 -114.3 317.95 -113.191 319.517C-111.598 321.768 -107.776 325.155 -99.8433 329.24C-84.865 336.954 -57.0008 342.213 -18.4107 344.892C19.6921 347.536 66.7505 347.593 118.985 345.819C223.423 342.274 347.746 331.444 460.879 319.747C511.75 314.485 558.11 309.422 600.361 304.808C709.481 292.89 791.184 283.967 852.367 282.348C892.714 281.281 932.8 283.235 959.754 288.743C966.54 290.13 972.723 291.786 977.982 293.775C983.107 295.712 988.041 298.216 991.747 301.638C995.647 305.241 998.835 310.572 998.063 317.278C997.363 323.361 993.618 328.244 989.523 331.986C985.731 335.452 980.522 338.333 974.94 340.827C969.206 343.388 962.359 345.849 954.764 348.236C939.575 353.009 920.667 357.707 900.223 362.398C886.287 365.595 871.645 368.789 856.854 372.015C827.865 378.339 798.305 384.787 772.368 391.628C746.327 398.497 724.059 405.899 706.579 413.397C688.838 421.008 676.966 428.33 670.831 434.632C667.804 437.742 666.877 439.891 666.66 441.003C666.527 441.688 666.509 442.492 667.597 443.951C668.914 445.717 671.747 448.19 677.223 450.96C682.607 453.684 689.973 456.408 699.642 458.989C775.177 479.141 892.433 482.169 1024.22 473.451C1155.7 464.753 1300.56 444.45 1430.7 418.571L1430.7 418.57C1632.53 378.478 1886.91 356.572 2049.68 379.987C2089.31 385.689 2124.97 393.237 2149.31 402.614C2161.29 407.229 2171.74 412.73 2178.34 419.575C2181.74 423.109 2184.57 427.467 2185.6 432.685C2186.66 438.085 2185.57 443.338 2182.96 448.066L2182.96 448.075C2179.1 455.033 2172 460.811 2164.26 465.655C2156.27 470.658 2146.37 475.4 2135.49 479.851C2113.7 488.762 2086.9 496.938 2061.06 503.854C2035.16 510.787 2009.95 516.528 1991.24 520.532C1981.88 522.535 1974.12 524.107 1968.71 525.18C1966 525.716 1963.87 526.128 1962.42 526.406C1961.69 526.545 1961.13 526.651 1960.76 526.722L1960.32 526.803L1960.18 526.83L1960.17 526.831C1960.17 526.832 1960.17 526.832 1958.34 517C1956.52 507.168 1956.52 507.168 1956.52 507.168L1956.52 507.167L1956.65 507.144L1957.05 507.068C1957.41 507 1957.95 506.898 1958.66 506.762C1960.07 506.492 1962.16 506.088 1964.82 505.561C1970.15 504.505 1977.8 502.954 1987.05 500.975C2005.56 497.014 2030.42 491.351 2055.89 484.535C2081.41 477.702 2107.28 469.781 2127.91 461.34C2138.25 457.114 2147 452.866 2153.65 448.701C2160.56 444.377 2164.12 440.81 2165.46 438.38C2166.11 437.203 2166.01 436.713 2165.97 436.54C2165.9 436.184 2165.56 435.141 2163.94 433.452C2160.47 429.852 2153.4 425.623 2142.12 421.277C2119.94 412.731 2086.09 405.43 2046.83 399.783C1887.3 376.834 1635.47 398.284 1434.6 438.187C1303.72 464.213 1158 484.645 1025.55 493.407C893.403 502.148 773.371 499.36 694.484 478.313L694.482 478.312C683.988 475.51 675.211 472.356 668.195 468.806C661.269 465.303 655.443 461.108 651.566 455.909C647.459 450.403 645.709 443.947 647.03 437.175C648.268 430.829 651.981 425.324 656.5 420.681C665.459 411.478 680.311 402.903 698.695 395.017C717.341 387.018 740.602 379.324 767.267 372.29C793.6 365.344 823.96 358.719 853.221 352.335C867.889 349.135 882.281 345.994 895.75 342.904C916.099 338.236 934.369 333.681 948.768 329.156C955.967 326.893 962.017 324.694 966.784 322.565C971.704 320.368 974.602 318.529 976.026 317.226L976.03 317.223C976.675 316.634 977.139 316.144 977.47 315.756C976.276 314.879 974.203 313.728 970.909 312.482C966.969 310.993 961.893 309.594 955.75 308.338C930.993 303.279 892.667 301.289 852.896 302.341C792.594 303.937 712.147 312.722 603.536 324.584C561.123 329.215 514.416 334.316 462.936 339.641C349.666 351.352 224.8 362.239 119.663 365.808C67.1097 367.592 19.2835 367.556 -19.7954 364.844C-58.3871 362.165 -90.0018 356.805 -109 347.021C-118.056 342.358 -125.202 337.169 -129.519 331.067C-134.262 324.361 -135.41 316.698 -132.355 309.299C-129.651 302.75 -124.131 297.595 -118.278 293.53C-112.238 289.335 -104.723 285.537 -96.477 282.091C-63.7212 268.4 -13.7064 257.951 22.0641 252.052C32.5516 250.322 43.5834 248.579 54.8153 246.804C82.1596 242.484 110.689 237.976 135.435 233.018C152.88 229.522 167.997 225.886 179.191 222.072C184.804 220.16 189.093 218.315 192.084 216.596C192.125 216.573 192.166 216.549 192.206 216.526C186.49 213.922 176.539 211.243 161.996 208.89C132.52 204.12 87.3265 201.158 29.2002 201.078L29.1985 201.078C-99.3662 200.879 -188.649 201.092 -245.784 201.355C-274.352 201.486 -294.882 201.629 -308.266 201.74C-314.959 201.795 -319.865 201.843 -323.096 201.876C-324.711 201.892 -325.908 201.906 -326.7 201.915L-327.874 201.928C-327.875 201.928 -327.875 201.928 -328 191.929C-328.125 181.93 -328.124 181.93 -328.123 181.93L-326.927 181.916C-326.128 181.907 -324.924 181.894 -323.302 181.877C-320.057 181.843 -315.137 181.796 -308.432 181.741C-295.021 181.63 -274.466 181.486 -245.876 181.355ZM-328 191.929L-328.125 181.93C-333.647 181.999 -338.068 186.532 -337.999 192.054C-337.93 197.576 -333.397 201.997 -327.874 201.928L-328 191.929ZM1958.34 517L1956.52 507.168C1951.09 508.176 1947.5 513.396 1948.51 518.826C1949.52 524.256 1954.74 527.84 1960.17 526.832L1958.34 517Z" fill="#EF8203"/>
</mask>
<g mask="url(#mask1_116_1518)">
<g filter="url(#filter0_f_116_1518)">
<circle cx="240" cy="352" r="40" fill="#111111"/>
</g>
</g>
</g>
<circle opacity="0.1" cx="241" cy="349" r="32" fill="#F3AA00"/>
<circle opacity="0.1" cx="241" cy="349" r="22.8571" fill="#F3AA00"/>
<circle opacity="0.3" cx="241" cy="349" r="13.7143" fill="#F3AA00"/>
<circle cx="241" cy="349" r="4.57143" fill="#F3AA00"/>
<circle opacity="0.1" cx="535" cy="320" r="32" fill="#A1A1A1"/>
<circle opacity="0.1" cx="535" cy="320" r="22.8571" fill="#A1A1A1"/>
<circle opacity="0.3" cx="535" cy="320" r="13.7143" fill="#A1A1A1"/>
<circle cx="535" cy="320" r="4.57143" fill="#A1A1A1"/>
<circle opacity="0.1" cx="830" cy="487" r="32" fill="#A1A1A1"/>
<circle opacity="0.1" cx="830" cy="487" r="22.8571" fill="#A1A1A1"/>
<circle opacity="0.3" cx="829.999" cy="487" r="13.7143" fill="#A1A1A1"/>
<circle cx="829.999" cy="487" r="4.57143" fill="#A1A1A1"/>
<circle opacity="0.1" cx="1123" cy="474" r="32" fill="#A1A1A1"/>
<circle opacity="0.1" cx="1123" cy="474" r="22.8571" fill="#A1A1A1"/>
<circle opacity="0.3" cx="1123" cy="474" r="13.7143" fill="#A1A1A1"/>
<circle cx="1123" cy="474" r="4.57143" fill="#A1A1A1"/>
<line x1="241" y1="345" x2="241" y2="63" stroke="url(#paint0_linear_116_1518)" stroke-width="2"/>
<line opacity="0.3" x1="535" y1="316" x2="535" y2="34" stroke="url(#paint1_linear_116_1518)" stroke-width="2"/>
<line opacity="0.3" x1="829" y1="483" x2="829" y2="119" stroke="url(#paint2_linear_116_1518)" stroke-width="2"/>
<line opacity="0.3" x1="1123" y1="474" x2="1123" y2="87" stroke="url(#paint3_linear_116_1518)" stroke-width="2"/>
<circle opacity="0.1" cx="1422" cy="431" r="32" fill="#A1A1A1"/>
<circle opacity="0.1" cx="1422" cy="431" r="22.8571" fill="#A1A1A1"/>
<circle opacity="0.3" cx="1422" cy="431" r="13.7143" fill="#A1A1A1"/>
<circle cx="1422" cy="431" r="4.57143" fill="#A1A1A1"/>
<line opacity="0.3" x1="1422" y1="431" x2="1422" y2="44" stroke="url(#paint4_linear_116_1518)" stroke-width="2"/>
<circle opacity="0.1" cx="1735" cy="387.295" r="32" fill="#A1A1A1"/>
<circle opacity="0.1" cx="1735" cy="387.295" r="22.8571" fill="#A1A1A1"/>
<circle opacity="0.3" cx="1735" cy="387.295" r="13.7143" fill="#A1A1A1"/>
<circle cx="1735" cy="387.295" r="4.57143" fill="#A1A1A1"/>
<line opacity="0.3" x1="1735" y1="387.295" x2="1735" y2="0.294922" stroke="url(#paint5_linear_116_1518)" stroke-width="2"/>
<defs>
<filter id="filter0_f_116_1518" x="163" y="275" width="154" height="154" filterUnits="userSpaceOnUse" color-interpolation-filters="sRGB">
<feFlood flood-opacity="0" result="BackgroundImageFix"/>
<feBlend mode="normal" in="SourceGraphic" in2="BackgroundImageFix" result="shape"/>
<feGaussianBlur stdDeviation="18.5" result="effect1_foregroundBlur_116_1518"/>
</filter>
<linearGradient id="paint0_linear_116_1518" x1="242" y1="350" x2="242" y2="63" gradientUnits="userSpaceOnUse">
<stop stop-color="#F3AA00"/>
<stop offset="0.466393" stop-color="#F3AA00"/>
<stop offset="1" stop-color="#111111"/>
</linearGradient>
<linearGradient id="paint1_linear_116_1518" x1="536" y1="321" x2="536" y2="34" gradientUnits="userSpaceOnUse">
<stop stop-color="#69778A"/>
<stop offset="1"/>
</linearGradient>
<linearGradient id="paint2_linear_116_1518" x1="830" y1="489.454" x2="830" y2="119" gradientUnits="userSpaceOnUse">
<stop stop-color="#69778A"/>
<stop offset="1"/>
</linearGradient>
<linearGradient id="paint3_linear_116_1518" x1="1124" y1="480.862" x2="1124" y2="87" gradientUnits="userSpaceOnUse">
<stop stop-color="#69778A"/>
<stop offset="1"/>
</linearGradient>
<linearGradient id="paint4_linear_116_1518" x1="1423" y1="437.862" x2="1423" y2="44" gradientUnits="userSpaceOnUse">
<stop stop-color="#69778A"/>
<stop offset="1"/>
</linearGradient>
<linearGradient id="paint5_linear_116_1518" x1="1736" y1="394.157" x2="1736" y2="0.294922" gradientUnits="userSpaceOnUse">
<stop stop-color="#69778A"/>
<stop offset="1"/>
</linearGradient>
</defs>
</svg>
