<svg width="1920" height="358" viewBox="0 0 1920 358" fill="none" xmlns="http://www.w3.org/2000/svg">
<path d="M1958.34 347C1958.34 347 2153.4 310.776 2174.21 273.228C2187.28 249.583 2127.15 231.234 2048.25 219.885C1887.11 196.703 1634 218.381 1432.65 258.379C1171.64 310.284 851.484 339.85 697.062 298.651C616.409 277.115 664.406 239.765 769.817 211.959C848.522 191.199 961.911 173.683 982.775 154.606C1009.45 130.233 932.75 120.226 852.631 122.345C768.27 124.577 644.69 140.788 461.907 159.694C235.504 183.103 -36.4686 203.125 -104.422 168.131C-172.375 133.136 -47.7034 103.693 23.6914 91.9183C95.0862 80.1431 195.215 67.2424 204.606 48.5062C212.397 32.9478 145.911 21.2388 29.2139 21.078C-227.951 20.6808 -328 21.9292 -328 21.9292" stroke="#191919" stroke-width="20" stroke-miterlimit="10" stroke-linecap="round" stroke-linejoin="round"/>
<mask id="mask0_115_1514" style="mask-type:alpha" maskUnits="userSpaceOnUse" x="-8" y="0" width="249" height="212">
<path d="M241 0.5H-7.5V211.5H241V0.5Z" fill="#C4C4C4"/>
</mask>
<g mask="url(#mask0_115_1514)">
<path fill-rule="evenodd" clip-rule="evenodd" d="M-245.876 11.3548C-188.695 11.0922 -99.3712 10.8794 29.2277 11.0781C87.7982 11.1588 134.197 14.1315 165.19 19.1464C180.518 21.6265 192.889 24.7263 201.169 28.6375C205.192 30.5378 209.436 33.166 212.214 37.0316C213.703 39.1045 214.878 41.6884 215.159 44.7095C215.443 47.7585 214.753 50.5775 213.548 52.9835L213.546 52.9871C211.029 58.0081 206.325 61.4809 202.045 63.9394C197.484 66.559 191.852 68.8876 185.641 71.0035C173.189 75.2459 157.051 79.084 139.365 82.6277C114.193 87.6715 84.9786 92.2876 57.4699 96.6343C46.3474 98.3917 35.5038 100.105 25.3187 101.785C-10.3056 107.661 -58.3239 117.821 -88.7643 130.544C-96.3171 133.701 -102.424 136.869 -106.868 139.956C-111.499 143.173 -113.325 145.615 -113.869 146.932C-113.878 146.955 -113.888 146.978 -113.898 147.001C-114.087 147.447 -114.3 147.95 -113.191 149.517C-111.598 151.768 -107.776 155.155 -99.8433 159.24C-84.865 166.954 -57.0008 172.213 -18.4107 174.892C19.6921 177.536 66.7505 177.593 118.985 175.819C223.423 172.274 347.746 161.444 460.879 149.747C511.75 144.485 558.11 139.422 600.361 134.808C709.481 122.89 791.184 113.967 852.367 112.348C892.714 111.281 932.8 113.235 959.754 118.743C966.54 120.13 972.723 121.786 977.982 123.775C983.107 125.712 988.041 128.216 991.747 131.638C995.647 135.241 998.835 140.572 998.063 147.278C997.363 153.361 993.618 158.244 989.523 161.986C985.731 165.452 980.522 168.333 974.94 170.827C969.206 173.388 962.359 175.849 954.764 178.236C939.575 183.009 920.667 187.707 900.223 192.398C886.287 195.595 871.645 198.789 856.854 202.015C827.865 208.339 798.305 214.787 772.368 221.628C746.327 228.497 724.059 235.899 706.579 243.397C688.838 251.008 676.966 258.33 670.831 264.632C667.804 267.742 666.877 269.891 666.66 271.003C666.527 271.688 666.509 272.492 667.597 273.951C668.914 275.717 671.747 278.19 677.223 280.96C682.607 283.684 689.973 286.408 699.642 288.989C775.177 309.141 892.433 312.169 1024.22 303.451C1155.7 294.753 1300.56 274.45 1430.7 248.571L1430.7 248.57C1632.53 208.478 1886.91 186.572 2049.68 209.987C2089.31 215.689 2124.97 223.237 2149.31 232.614C2161.29 237.229 2171.74 242.73 2178.34 249.575C2181.74 253.109 2184.57 257.467 2185.6 262.685C2186.66 268.085 2185.57 273.338 2182.96 278.066L2182.96 278.075C2179.1 285.033 2172 290.811 2164.26 295.655C2156.27 300.658 2146.37 305.4 2135.49 309.851C2113.7 318.762 2086.9 326.938 2061.06 333.854C2035.16 340.787 2009.95 346.528 1991.24 350.532C1981.88 352.535 1974.12 354.107 1968.71 355.18C1966 355.716 1963.87 356.128 1962.42 356.406C1961.69 356.545 1961.13 356.651 1960.76 356.722L1960.32 356.803L1960.18 356.83L1960.17 356.831C1960.17 356.832 1960.17 356.832 1958.34 347C1956.52 337.168 1956.52 337.168 1956.52 337.168L1956.52 337.167L1956.65 337.144L1957.05 337.068C1957.41 337 1957.95 336.898 1958.66 336.762C1960.07 336.492 1962.16 336.088 1964.82 335.561C1970.15 334.505 1977.8 332.954 1987.05 330.975C2005.56 327.014 2030.42 321.351 2055.89 314.535C2081.41 307.702 2107.28 299.781 2127.91 291.34C2138.25 287.114 2147 282.866 2153.65 278.701C2160.56 274.377 2164.12 270.81 2165.46 268.38C2166.11 267.203 2166.01 266.713 2165.97 266.54C2165.9 266.184 2165.56 265.141 2163.94 263.452C2160.47 259.852 2153.4 255.623 2142.12 251.277C2119.94 242.731 2086.09 235.43 2046.83 229.783C1887.3 206.834 1635.47 228.284 1434.6 268.187C1303.72 294.213 1158 314.645 1025.55 323.407C893.403 332.148 773.371 329.36 694.484 308.313L694.482 308.312C683.988 305.51 675.211 302.356 668.195 298.806C661.269 295.303 655.443 291.108 651.566 285.909C647.459 280.403 645.709 273.947 647.03 267.175C648.268 260.829 651.981 255.324 656.5 250.681C665.459 241.478 680.311 232.903 698.695 225.017C717.341 217.018 740.602 209.324 767.267 202.29C793.6 195.344 823.96 188.719 853.221 182.335C867.889 179.135 882.281 175.994 895.75 172.904C916.099 168.236 934.369 163.681 948.768 159.156C955.967 156.893 962.017 154.694 966.784 152.565C971.704 150.368 974.602 148.529 976.026 147.226L976.03 147.223C976.675 146.634 977.139 146.144 977.47 145.756C976.276 144.879 974.203 143.728 970.909 142.482C966.969 140.993 961.893 139.594 955.75 138.338C930.993 133.279 892.667 131.289 852.896 132.341C792.594 133.937 712.147 142.722 603.536 154.584C561.123 159.215 514.416 164.316 462.936 169.641C349.666 181.352 224.8 192.239 119.663 195.808C67.1097 197.592 19.2835 197.556 -19.7954 194.844C-58.3871 192.165 -90.0018 186.805 -109 177.021C-118.056 172.358 -125.202 167.169 -129.519 161.067C-134.262 154.361 -135.41 146.698 -132.355 139.299C-129.651 132.75 -124.131 127.595 -118.278 123.53C-112.238 119.335 -104.723 115.537 -96.477 112.091C-63.7212 98.3999 -13.7064 87.9512 22.0641 82.0516C32.5516 80.3219 43.5834 78.5788 54.8153 76.8041C82.1596 72.4837 110.689 67.9759 135.435 63.0175C152.88 59.5222 167.997 55.8861 179.191 52.0721C184.804 50.1598 189.093 48.3146 192.084 46.5965C192.125 46.5729 192.166 46.5494 192.206 46.5261C186.49 43.9221 176.539 41.2428 161.996 38.8896C132.52 34.1203 87.3265 31.1581 29.2002 31.078L29.1985 31.078C-99.3662 30.8794 -188.649 31.0922 -245.784 31.3546C-274.352 31.4857 -294.882 31.6293 -308.266 31.74C-314.959 31.7954 -319.865 31.8425 -323.096 31.8758C-324.711 31.8925 -325.908 31.9057 -326.7 31.9147L-327.874 31.9284C-327.875 31.9284 -327.875 31.9284 -328 21.9292C-328.125 11.93 -328.124 11.93 -328.123 11.93L-326.927 11.916C-326.128 11.9069 -324.924 11.8936 -323.302 11.8769C-320.057 11.8435 -315.137 11.7962 -308.432 11.7407C-295.021 11.6298 -274.466 11.4861 -245.876 11.3548ZM-328 21.9292L-328.125 11.93C-333.647 11.9989 -338.068 16.5316 -337.999 22.054C-337.93 27.5764 -333.397 31.9973 -327.874 31.9284L-328 21.9292ZM1958.34 347L1956.52 337.168C1951.09 338.176 1947.5 343.396 1948.51 348.826C1949.52 354.256 1954.74 357.84 1960.17 356.832L1958.34 347Z" fill="#F3AA00"/>
<mask id="mask1_115_1514" style="mask-type:alpha" maskUnits="userSpaceOnUse" x="-338" y="11" width="2525" height="347">
<path fill-rule="evenodd" clip-rule="evenodd" d="M-245.876 11.3548C-188.695 11.0922 -99.3712 10.8794 29.2277 11.0781C87.7982 11.1588 134.197 14.1315 165.19 19.1464C180.518 21.6265 192.889 24.7263 201.169 28.6375C205.192 30.5378 209.436 33.166 212.214 37.0316C213.703 39.1045 214.878 41.6884 215.159 44.7095C215.443 47.7585 214.753 50.5775 213.548 52.9835L213.546 52.9871C211.029 58.0081 206.325 61.4809 202.045 63.9394C197.484 66.559 191.852 68.8876 185.641 71.0035C173.189 75.2459 157.051 79.084 139.365 82.6277C114.193 87.6715 84.9786 92.2876 57.4699 96.6343C46.3474 98.3917 35.5038 100.105 25.3187 101.785C-10.3056 107.661 -58.3239 117.821 -88.7643 130.544C-96.3171 133.701 -102.424 136.869 -106.868 139.956C-111.499 143.173 -113.325 145.615 -113.869 146.932C-113.878 146.955 -113.888 146.978 -113.898 147.001C-114.087 147.447 -114.3 147.95 -113.191 149.517C-111.598 151.768 -107.776 155.155 -99.8433 159.24C-84.865 166.954 -57.0008 172.213 -18.4107 174.892C19.6921 177.536 66.7505 177.593 118.985 175.819C223.423 172.274 347.746 161.444 460.879 149.747C511.75 144.485 558.11 139.422 600.361 134.808C709.481 122.89 791.184 113.967 852.367 112.348C892.714 111.281 932.8 113.235 959.754 118.743C966.54 120.13 972.723 121.786 977.982 123.775C983.107 125.712 988.041 128.216 991.747 131.638C995.647 135.241 998.835 140.572 998.063 147.278C997.363 153.361 993.618 158.244 989.523 161.986C985.731 165.452 980.522 168.333 974.94 170.827C969.206 173.388 962.359 175.849 954.764 178.236C939.575 183.009 920.667 187.707 900.223 192.398C886.287 195.595 871.645 198.789 856.854 202.015C827.865 208.339 798.305 214.787 772.368 221.628C746.327 228.497 724.059 235.899 706.579 243.397C688.838 251.008 676.966 258.33 670.831 264.632C667.804 267.742 666.877 269.891 666.66 271.003C666.527 271.688 666.509 272.492 667.597 273.951C668.914 275.717 671.747 278.19 677.223 280.96C682.607 283.684 689.973 286.408 699.642 288.989C775.177 309.141 892.433 312.169 1024.22 303.451C1155.7 294.753 1300.56 274.45 1430.7 248.571L1430.7 248.57C1632.53 208.478 1886.91 186.572 2049.68 209.987C2089.31 215.689 2124.97 223.237 2149.31 232.614C2161.29 237.229 2171.74 242.73 2178.34 249.575C2181.74 253.109 2184.57 257.467 2185.6 262.685C2186.66 268.085 2185.57 273.338 2182.96 278.066L2182.96 278.075C2179.1 285.033 2172 290.811 2164.26 295.655C2156.27 300.658 2146.37 305.4 2135.49 309.851C2113.7 318.762 2086.9 326.938 2061.06 333.854C2035.16 340.787 2009.95 346.528 1991.24 350.532C1981.88 352.535 1974.12 354.107 1968.71 355.18C1966 355.716 1963.87 356.128 1962.42 356.406C1961.69 356.545 1961.13 356.651 1960.76 356.722L1960.32 356.803L1960.18 356.83L1960.17 356.831C1960.17 356.832 1960.17 356.832 1958.34 347C1956.52 337.168 1956.52 337.168 1956.52 337.168L1956.52 337.167L1956.65 337.144L1957.05 337.068C1957.41 337 1957.95 336.898 1958.66 336.762C1960.07 336.492 1962.16 336.088 1964.82 335.561C1970.15 334.505 1977.8 332.954 1987.05 330.975C2005.56 327.014 2030.42 321.351 2055.89 314.535C2081.41 307.702 2107.28 299.781 2127.91 291.34C2138.25 287.114 2147 282.866 2153.65 278.701C2160.56 274.377 2164.12 270.81 2165.46 268.38C2166.11 267.203 2166.01 266.713 2165.97 266.54C2165.9 266.184 2165.56 265.141 2163.94 263.452C2160.47 259.852 2153.4 255.623 2142.12 251.277C2119.94 242.731 2086.09 235.43 2046.83 229.783C1887.3 206.834 1635.47 228.284 1434.6 268.187C1303.72 294.213 1158 314.645 1025.55 323.407C893.403 332.148 773.371 329.36 694.484 308.313L694.482 308.312C683.988 305.51 675.211 302.356 668.195 298.806C661.269 295.303 655.443 291.108 651.566 285.909C647.459 280.403 645.709 273.947 647.03 267.175C648.268 260.829 651.981 255.324 656.5 250.681C665.459 241.478 680.311 232.903 698.695 225.017C717.341 217.018 740.602 209.324 767.267 202.29C793.6 195.344 823.96 188.719 853.221 182.335C867.889 179.135 882.281 175.994 895.75 172.904C916.099 168.236 934.369 163.681 948.768 159.156C955.967 156.893 962.017 154.694 966.784 152.565C971.704 150.368 974.602 148.529 976.026 147.226L976.03 147.223C976.675 146.634 977.139 146.144 977.47 145.756C976.276 144.879 974.203 143.728 970.909 142.482C966.969 140.993 961.893 139.594 955.75 138.338C930.993 133.279 892.667 131.289 852.896 132.341C792.594 133.937 712.147 142.722 603.536 154.584C561.123 159.215 514.416 164.316 462.936 169.641C349.666 181.352 224.8 192.239 119.663 195.808C67.1097 197.592 19.2835 197.556 -19.7954 194.844C-58.3871 192.165 -90.0018 186.805 -109 177.021C-118.056 172.358 -125.202 167.169 -129.519 161.067C-134.262 154.361 -135.41 146.698 -132.355 139.299C-129.651 132.75 -124.131 127.595 -118.278 123.53C-112.238 119.335 -104.723 115.537 -96.477 112.091C-63.7212 98.3999 -13.7064 87.9512 22.0641 82.0516C32.5516 80.3219 43.5834 78.5788 54.8153 76.8041C82.1596 72.4837 110.689 67.9759 135.435 63.0175C152.88 59.5222 167.997 55.8861 179.191 52.0721C184.804 50.1598 189.093 48.3146 192.084 46.5965C192.125 46.5729 192.166 46.5494 192.206 46.5261C186.49 43.9221 176.539 41.2428 161.996 38.8896C132.52 34.1203 87.3265 31.1581 29.2002 31.078L29.1985 31.078C-99.3662 30.8794 -188.649 31.0922 -245.784 31.3546C-274.352 31.4857 -294.882 31.6293 -308.266 31.74C-314.959 31.7954 -319.865 31.8425 -323.096 31.8758C-324.711 31.8925 -325.908 31.9057 -326.7 31.9147L-327.874 31.9284C-327.875 31.9284 -327.875 31.9284 -328 21.9292C-328.125 11.93 -328.124 11.93 -328.123 11.93L-326.927 11.916C-326.128 11.9069 -324.924 11.8936 -323.302 11.8769C-320.057 11.8435 -315.137 11.7962 -308.432 11.7407C-295.021 11.6298 -274.466 11.4861 -245.876 11.3548ZM-328 21.9292L-328.125 11.93C-333.647 11.9989 -338.068 16.5316 -337.999 22.054C-337.93 27.5764 -333.397 31.9973 -327.874 31.9284L-328 21.9292ZM1958.34 347L1956.52 337.168C1951.09 338.176 1947.5 343.396 1948.51 348.826C1949.52 354.256 1954.74 357.84 1960.17 356.832L1958.34 347Z" fill="#EF8203"/>
</mask>
<g mask="url(#mask1_115_1514)">
<g filter="url(#filter0_f_115_1514)">
<circle cx="240" cy="182" r="40" fill="#111111"/>
</g>
</g>
</g>
<defs>
<filter id="filter0_f_115_1514" x="163" y="105" width="154" height="154" filterUnits="userSpaceOnUse" color-interpolation-filters="sRGB">
<feFlood flood-opacity="0" result="BackgroundImageFix"/>
<feBlend mode="normal" in="SourceGraphic" in2="BackgroundImageFix" result="shape"/>
<feGaussianBlur stdDeviation="18.5" result="effect1_foregroundBlur_115_1514"/>
</filter>
</defs>
</svg>
